# xmcd
#
# Track frame offsets:
# 150
# 11897
# 25701
# 51323
# 62935
# 87350
# 101384
# 121536
# 141538
# 160313
# 169944
# 188888
# 209866
# 229294
# 246244
# 265579
# 285911
# 303107
# 319707
#
# Disc length: 4487 seconds
#
#
# Revision: 0
# Processed by: cddbd v1.5.2PL0 Copyright (c) Steve Scherf et al.
# Submitted via: FreeRIP 2.951 
#
DISCID=0e118513
DTITLE=Gary Chapman - Hymns from the Ryman
DYEAR=1998
DGENRE=Gospel
TTITLE0=Sunday at the Ryman
TTITLE1=Amazing Grace
TTITLE2=Sweet Hour of Prayer
TTITLE3=Jesu - Joy of Man's Desiring
TTITLE4=Softly and Tenderly
TTITLE5=This Is My Father's World
TTITLE6=Fairest Lord Jesus
TTITLE7='Tis So Sweet
TTITLE8=Holy, Holy, Holy
TTITLE9=The Lord Bless You and Keep You
TTITLE10=Castelo Forte
TTITLE11=Via Dolorosa
TTITLE12=Tu és Fiel
TTITLE13=Rude Cruz
TTITLE14=Que Segurança
TTITLE15=Aleluia do Messias
TTITLE16=Grandioso és Tu
TTITLE17=Deus Enviou
TTITLE18=Solta o Cabo da Nau
EXTD=
EXTT0=Gary Chapman
EXTT1=Gary Chapman
EXTT2=Gary Chapman
EXTT3=Gary Chapman
EXTT4=Gary Chapman
EXTT5=Gary Chapman
EXTT6=Gary Chapman
EXTT7=Gary Chapman
EXTT8=Gary Chapman
EXTT9=Gary Chapman
EXTT10=Martinho Lutero
EXTT11=
EXTT12=
EXTT13=
EXTT14=
EXTT15=
EXTT16=
EXTT17=
EXTT18=
PLAYORDER=
